<?xml version="1.0" encoding="utf-8"?>
<!-- Generator: Adobe Illustrator 15.1.0, SVG Export Plug-In  -->
<!DOCTYPE svg PUBLIC "-//W3C//DTD SVG 1.1//EN" "http://www.w3.org/Graphics/SVG/1.1/DTD/svg11.dtd" [
	<!ENTITY ns_flows "http://ns.adobe.com/Flows/1.0/">
]>
<svg version="1.1"
	 xmlns="http://www.w3.org/2000/svg" xmlns:xlink="http://www.w3.org/1999/xlink" xmlns:a="http://ns.adobe.com/AdobeSVGViewerExtensions/3.0/"
	 x="0px" y="0px" width="419px" height="185px" viewBox="0 0 419 185" enable-background="new 0 0 419 185" xml:space="preserve">
<defs>
</defs>
<path fill="#0F70B8" d="M415.171,83.661l-80-80c-4.881-4.881-12.797-4.881-17.678,0c-4.882,4.882-4.882,12.796,0,17.678L376.154,80
	H12.5C5.597,80,0,85.597,0,92.5C0,99.402,5.597,105,12.5,105h363.654l-58.659,58.661c-4.882,4.882-4.882,12.796,0,17.678
	c2.44,2.438,5.64,3.661,8.839,3.661s6.398-1.223,8.839-3.661l79.998-80C420.053,96.457,420.053,88.543,415.171,83.661z"/>
</svg>
