<?xml version="1.0" encoding="UTF-8"?>
<svg xmlns="http://www.w3.org/2000/svg" width="249.305" height="227.639" viewBox="0 0 249.305 227.639">
  <g id="Group_32" data-name="Group 32" transform="translate(403.34 -3747)">
    <path id="Path_106" data-name="Path 106" d="M228.861,79.4l-.16,21.384c-61.659,23.927-147.9,23.725-209.6.059l.16-21.451c0-30.505,209.6-30.505,209.6,0ZM207.553,160.34a61.877,61.877,0,1,1-56.075,32.6l16.508,12.911a41.425,41.425,0,1,0,39.559-25.014v13.139l-35.9-23.321,35.9-23.321v13Zm21.114-49-.084,32.232a83.271,83.271,0,0,0-20.786-3.024c-38.826-.766-68.093,23.953-78.958,55.207-38.683.539-77.686-5.441-109.952-17.855l.177-66.535c62.585,22.79,147.06,23.009,209.6-.025ZM139.173,269.045c-55.216,1.9-116.344-7.319-120.513-26.9l.2-53.725c31.971,11.673,69.66,17.442,107.223,17.232a79.378,79.378,0,0,0,13.088,63.394Z" transform="translate(-422 3690.485)" fill="#186dae" fill-rule="evenodd"></path>
  </g>
</svg>
