<?xml version="1.0" encoding="utf-8"?>
<!-- Generator: Adobe Illustrator 15.1.0, SVG Export Plug-In  -->
<!DOCTYPE svg PUBLIC "-//W3C//DTD SVG 1.1//EN" "http://www.w3.org/Graphics/SVG/1.1/DTD/svg11.dtd" [
	<!ENTITY ns_flows "http://ns.adobe.com/Flows/1.0/">
]>
<svg version="1.1"
	 xmlns="http://www.w3.org/2000/svg" xmlns:xlink="http://www.w3.org/1999/xlink" xmlns:a="http://ns.adobe.com/AdobeSVGViewerExtensions/3.0/"
	 x="0px" y="0px" width="95px" height="104px" viewBox="0 0 95 104" enable-background="new 0 0 95 104" xml:space="preserve">
<defs>
</defs>
<g>
	<defs>
		<rect id="SVGID_1_" width="95" height="103.636"/>
	</defs>
	<clipPath id="SVGID_2_">
		<use xlink:href="#SVGID_1_"  overflow="visible"/>
	</clipPath>
	<path clip-path="url(#SVGID_2_)" fill="#006fba" d="M2.159,99.318c1.192,0,2.159,0.963,2.159,2.159
		c0,1.192-0.967,2.159-2.159,2.159S0,102.669,0,101.477C0,100.281,0.967,99.318,2.159,99.318 M10.795,99.318
		c1.192,0,2.16,0.963,2.16,2.159c0,1.192-0.968,2.159-2.16,2.159s-2.159-0.967-2.159-2.159
		C8.637,100.281,9.604,99.318,10.795,99.318 M84.206,99.318c1.19,0,2.158,0.963,2.158,2.159c0,1.192-0.968,2.159-2.158,2.159
		c-1.193,0-2.161-0.967-2.161-2.159C82.044,100.281,83.012,99.318,84.206,99.318 M92.841,99.318c1.19,0,2.158,0.963,2.158,2.159
		c0,1.192-0.968,2.159-2.158,2.159c-1.193,0-2.159-0.967-2.159-2.159C90.682,100.281,91.648,99.318,92.841,99.318 M86.364,56.385
		V66.93c0,9.444-18.529,14.69-36.705,15.078H47.5v17.309h28.066c1.193,0,2.161,0.966,2.161,2.158c0,1.196-0.968,2.159-2.161,2.159
		H19.432c-1.193,0-2.16-0.963-2.16-2.159c0-1.192,0.967-2.158,2.16-2.158h23.75v-17.39C25.723,81.184,8.637,75.998,8.637,66.93
		V56.385c8.071,5.688,25.81,8.386,38.864,8.386C60.545,64.771,78.289,62.073,86.364,56.385 M86.364,39.112v10.545
		c0,4.248-16.689,10.795-38.863,10.795c-22.178,0-38.864-6.548-38.864-10.795V39.112c8.071,5.687,25.81,8.386,38.864,8.386
		C60.545,47.499,78.289,44.799,86.364,39.112 M86.364,21.839v10.545c0,4.25-16.689,10.796-38.863,10.796
		c-22.178,0-38.864-6.546-38.864-10.796V21.839c8.071,5.687,25.81,8.386,38.864,8.386C60.545,30.226,78.289,27.526,86.364,21.839
		 M47.5,0c18.835,0,38.863,5.298,38.863,15.113c0,4.244-16.689,10.795-38.863,10.795c-22.178,0-38.864-6.551-38.864-10.795
		C8.637,5.298,28.66,0,47.5,0"/>
</g>
</svg>
