<?xml version="1.0" encoding="utf-8"?>
<!-- Generator: Adobe Illustrator 15.1.0, SVG Export Plug-In  -->
<!DOCTYPE svg PUBLIC "-//W3C//DTD SVG 1.1//EN" "http://www.w3.org/Graphics/SVG/1.1/DTD/svg11.dtd" [
	<!ENTITY ns_flows "http://ns.adobe.com/Flows/1.0/">
]>
<svg version="1.1"
	 xmlns="http://www.w3.org/2000/svg" xmlns:xlink="http://www.w3.org/1999/xlink" xmlns:a="http://ns.adobe.com/AdobeSVGViewerExtensions/3.0/"
	 x="0px" y="0px" width="41px" height="40px" viewBox="0 0 41 40" enable-background="new 0 0 41 40" xml:space="preserve">
<defs>
</defs>
<path id="Fill-494_1_" fill="#0B70B8" d="M40.145,38.438h-0.854V13.668c0-0.472-0.384-0.854-0.854-0.854h-5.125
	c-0.47,0-0.853,0.383-0.853,0.854v24.771h-3.418V20.501c0-0.472-0.384-0.854-0.853-0.854h-5.127c-0.47,0-0.853,0.383-0.853,0.854
	v17.938h-3.417V27.335c0-0.473-0.384-0.855-0.854-0.855h-5.125c-0.472,0-0.854,0.383-0.854,0.855v11.104H8.542v-4.271
	c0-0.472-0.384-0.854-0.854-0.854H2.563c-0.472,0-0.854,0.383-0.854,0.854v4.271H0.854C0.383,38.438,0,38.821,0,39.293
	c0,0.469,0.383,0.854,0.854,0.854h39.29c0.47,0,0.855-0.386,0.855-0.854C41,38.821,40.614,38.438,40.145,38.438"/>
<path id="Fill-495_1_" fill="#0B70B8" d="M5.599,22.87L34.797,3.404l-0.623,5.033c-0.06,0.468,0.272,0.895,0.741,0.953
	c0.447,0.063,0.894-0.261,0.953-0.741l0.854-6.883c0.052-0.42-0.261-0.885-0.717-0.941c-0.048-0.019-6.813-0.812-6.864-0.818
	c-0.478-0.055-0.895,0.28-0.947,0.75c-0.057,0.47,0.278,0.893,0.747,0.946l4.528,0.535L4.651,21.448
	c-0.394,0.264-0.499,0.793-0.236,1.186C4.675,23.027,5.209,23.132,5.599,22.87"/>
</svg>
