<?xml version="1.0" encoding="utf-8"?>
<!-- Generator: Adobe Illustrator 15.1.0, SVG Export Plug-In  -->
<!DOCTYPE svg PUBLIC "-//W3C//DTD SVG 1.1//EN" "http://www.w3.org/Graphics/SVG/1.1/DTD/svg11.dtd" [
	<!ENTITY ns_flows "http://ns.adobe.com/Flows/1.0/">
]>
<svg version="1.1"
	 xmlns="http://www.w3.org/2000/svg" xmlns:xlink="http://www.w3.org/1999/xlink" xmlns:a="http://ns.adobe.com/AdobeSVGViewerExtensions/3.0/"
	 x="0px" y="0px" width="33px" height="25px" viewBox="0 0 33 25" enable-background="new 0 0 33 25" xml:space="preserve">
<defs>
</defs>
<path fill="#0F70B8" d="M11.464,2.621C9.251,4.1,7.647,5.539,6.653,6.938c-0.995,1.399-1.684,3.209-2.067,5.43
	c1.254-0.328,2.21-0.492,2.866-0.491c1.801,0,3.248,0.629,4.339,1.889c1.091,1.259,1.637,2.896,1.638,4.913
	c0,2.021-0.551,3.631-1.652,4.831c-1.102,1.2-2.571,1.798-4.408,1.792c-2.457,0-4.34-1.012-5.65-3.035
	C0.573,20.463,0,18.277,0,15.707C0,9.721,3.167,4.485,9.499,0L11.464,2.621z M31.034,2.621c-2.21,1.479-3.813,2.918-4.81,4.318
	c-0.996,1.399-1.699,3.209-2.109,5.43c1.283-0.328,2.252-0.492,2.907-0.491c1.801,0,3.248,0.621,4.34,1.862
	c1.093,1.242,1.639,2.887,1.638,4.934c0,2.021-0.553,3.631-1.658,4.831s-2.573,1.801-4.401,1.802c-2.456,0-4.34-1.012-5.65-3.035
	c-1.146-1.804-1.719-3.99-1.72-6.561c0-5.988,3.166-11.225,9.499-15.71L31.034,2.621z"/>
</svg>
