<?xml version="1.0" encoding="utf-8"?>
<!-- Generator: Adobe Illustrator 15.1.0, SVG Export Plug-In  -->
<!DOCTYPE svg PUBLIC "-//W3C//DTD SVG 1.1//EN" "http://www.w3.org/Graphics/SVG/1.1/DTD/svg11.dtd" [
	<!ENTITY ns_flows "http://ns.adobe.com/Flows/1.0/">
]>
<svg version="1.1"
	 xmlns="http://www.w3.org/2000/svg" xmlns:xlink="http://www.w3.org/1999/xlink" xmlns:a="http://ns.adobe.com/AdobeSVGViewerExtensions/3.0/"
	 x="0px" y="0px" width="20px" height="20px" viewBox="0 0 20 20" enable-background="new 0 0 20 20" xml:space="preserve">
<defs>
</defs>
<g>
	<defs>
		<rect id="SVGID_1_" width="20" height="20"/>
	</defs>
	<clipPath id="SVGID_2_">
		<use xlink:href="#SVGID_1_"  overflow="visible"/>
	</clipPath>
	<path clip-path="url(#SVGID_2_)" fill="#006FBA" d="M19.755,18.58l-4.808-4.809c1.191-1.453,1.91-3.314,1.91-5.343
		C16.857,3.775,13.082,0,8.429,0C3.771,0,0,3.775,0,8.429s3.771,8.429,8.429,8.429c2.028,0,3.886-0.715,5.339-1.906l4.808,4.804
		c0.327,0.327,0.854,0.327,1.18,0C20.082,19.433,20.082,18.902,19.755,18.58 M8.429,15.18c-3.727,0-6.755-3.028-6.755-6.751
		s3.029-6.755,6.755-6.755c3.723,0,6.755,3.033,6.755,6.755S12.151,15.18,8.429,15.18"/>
</g>
</svg>
