<?xml version="1.0" encoding="utf-8"?>
<!-- Generator: Adobe Illustrator 15.1.0, SVG Export Plug-In  -->
<!DOCTYPE svg PUBLIC "-//W3C//DTD SVG 1.1//EN" "http://www.w3.org/Graphics/SVG/1.1/DTD/svg11.dtd" [
	<!ENTITY ns_flows "http://ns.adobe.com/Flows/1.0/">
]>
<svg version="1.1"
	 xmlns="http://www.w3.org/2000/svg" xmlns:xlink="http://www.w3.org/1999/xlink" xmlns:a="http://ns.adobe.com/AdobeSVGViewerExtensions/3.0/"
	 x="0px" y="0px" width="50px" height="55px" viewBox="0 0 50 55" enable-background="new 0 0 50 55" xml:space="preserve">
<defs>
</defs>
<path id="Fill-3897_1_" fill="#006fba" d="M24.185,23.144c3.233,0,5.863,2.63,5.863,5.859c0,2.838-2.026,5.209-4.711,5.746v2.104
	c0,0.64-0.515,1.152-1.151,1.152c-0.636,0-1.151-0.513-1.151-1.152V34.75c-2.684-0.537-4.711-2.908-4.711-5.746
	c0-0.636,0.516-1.151,1.152-1.151c0.635,0,1.151,0.516,1.151,1.151c0,1.964,1.596,3.562,3.559,3.562c1.963,0,3.56-1.598,3.56-3.562
	c0-1.962-1.597-3.557-3.56-3.557c-3.231,0-5.862-2.63-5.862-5.864c0-2.838,2.027-5.21,4.711-5.745v-2.104
	c0-0.635,0.516-1.151,1.151-1.151c0.636,0,1.151,0.516,1.151,1.151v2.104c2.685,0.534,4.711,2.907,4.711,5.745
	c0,0.636-0.517,1.151-1.152,1.151c-0.635,0-1.15-0.516-1.15-1.151c0-1.96-1.597-3.559-3.56-3.559c-1.963,0-3.559,1.599-3.559,3.559
	C20.626,21.547,22.222,23.144,24.185,23.144 M45.063,19.362C45.063,7.244,33.862,0,23.034,0C10.119,0,0,10.18,0,23.178
	c0,8.291,3.098,14.453,9.214,18.328v12.623c0,0.639,0.515,1.152,1.151,1.152h23.034c0.635,0,1.15-0.514,1.15-1.152V47.27
	c4.002-0.037,6.421-0.45,8.229-2.261c1.925-1.926,2.199-7.692,2.218-10.429c0.695,0.01,1.576,0.014,2.34-0.017
	c1.286,0,2.664-0.878,2.664-3.228C50,26.884,46.643,23.646,45.063,19.362"/>
</svg>
