<?xml version="1.0" encoding="utf-8"?>
<!-- Generator: Adobe Illustrator 15.1.0, SVG Export Plug-In  -->
<!DOCTYPE svg PUBLIC "-//W3C//DTD SVG 1.1//EN" "http://www.w3.org/Graphics/SVG/1.1/DTD/svg11.dtd" [
	<!ENTITY ns_flows "http://ns.adobe.com/Flows/1.0/">
]>
<svg version="1.1"
	 xmlns="http://www.w3.org/2000/svg" xmlns:xlink="http://www.w3.org/1999/xlink" xmlns:a="http://ns.adobe.com/AdobeSVGViewerExtensions/3.0/"
	 x="0px" y="0px" width="56px" height="49px" viewBox="0 0 56 49" enable-background="new 0 0 56 49" xml:space="preserve">
<defs>
</defs>
<path id="Fill-4140_1_" fill="#FFFFFF" d="M40.438,24.008c-0.376,0.382-1.543,1.549-7.351,3.416
	c-0.717,0.227-1.335,0.206-1.961,0.053c1.304,1.404,1.291,3.598-0.083,4.963c-3.056,3.048-9.994,9.625-16.843,13.98
	c2.808,1.627,6.061,2.574,9.536,2.574c10.541,0,19.119-8.58,19.119-19.119c0-2.556-0.515-4.995-1.43-7.222
	C41.157,23.141,40.842,23.604,40.438,24.008"/>
<path id="Fill-4141_1_" fill="#FFFFFF" d="M35.37,18.938c0.469-0.466,1.227-0.466,1.689,0c0.467,0.466,0.467,1.224,0,1.69
	c-0.305,0.296-1.616,0.871-3.129,1.438C34.498,20.559,35.073,19.245,35.37,18.938 M32.355,25.145
	c1.234-0.394,5.341-1.768,6.394-2.827h0.002c1.396-1.398,1.396-3.671,0-5.07c-0.675-0.675-1.577-1.048-2.532-1.048h-0.004
	c-0.957,0-1.858,0.373-2.534,1.048c-1.058,1.055-2.432,5.161-2.828,6.393C30.555,24.576,31.443,25.446,32.355,25.145"/>
<path id="Fill-4142_1_" fill="#FFFFFF" d="M29.362,29.056c-0.465-0.471-1.223-0.469-1.689-0.004
	C13.967,42.692,4.078,47.105,2.625,45.652c-0.638-0.639-0.171-3.533,3.281-8.954c0.657,1.699,1.539,3.291,2.626,4.725
	c4.119-2.383,10.261-6.906,17.454-14.064c0.931-0.93,2.239-1.18,3.429-0.866c-0.912-0.949-1.242-2.321-0.837-3.58
	c1.865-5.808,3.031-6.969,3.415-7.352c0.713-0.714,1.604-1.177,2.552-1.438c-3.075-2.12-6.8-3.365-10.811-3.365
	c-10.541,0-19.119,8.576-19.119,19.119c0,1.315,0.15,2.594,0.407,3.828C0.25,40.666-1.142,45.265,0.935,47.342
	c5.002,5.002,23.27-11.469,28.423-16.597C29.827,30.281,29.829,29.521,29.362,29.056"/>
<path id="Fill-4143_1_" fill="#FFFFFF" d="M55.648,0.352c-0.344-0.346-0.868-0.449-1.317-0.256l-5.911,2.536
	c-0.142,0.057-0.268,0.148-0.376,0.253l-3.7,3.702l-4.371-1.456c-0.426-0.146-0.898-0.033-1.222,0.289l-4.226,4.226
	c-0.467,0.463-0.467,1.221,0,1.689l1.24,1.235l3.854-3.855c0.467-0.466,1.223-0.466,1.689,0c0.467,0.467,0.467,1.224,0,1.689
	l-3.854,3.856l4.284,4.285l3.854-3.855c0.467-0.466,1.224-0.466,1.69,0c0.466,0.467,0.466,1.224,0,1.69l-3.854,3.854l1.235,1.238
	c0.469,0.466,1.227,0.466,1.689,0l4.226-4.225c0.321-0.321,0.432-0.793,0.29-1.222l-1.458-4.371l3.702-3.7
	c0.106-0.107,0.195-0.233,0.254-0.374l2.537-5.916C56.095,1.215,55.995,0.696,55.648,0.352"/>
</svg>
