<?xml version="1.0" encoding="utf-8"?>
<!-- Generator: Adobe Illustrator 15.1.0, SVG Export Plug-In  -->
<!DOCTYPE svg PUBLIC "-//W3C//DTD SVG 1.1//EN" "http://www.w3.org/Graphics/SVG/1.1/DTD/svg11.dtd" [
	<!ENTITY ns_flows "http://ns.adobe.com/Flows/1.0/">
]>
<svg version="1.1"
	 xmlns="http://www.w3.org/2000/svg" xmlns:xlink="http://www.w3.org/1999/xlink" xmlns:a="http://ns.adobe.com/AdobeSVGViewerExtensions/3.0/"
	 x="0px" y="0px" width="58px" height="58px" viewBox="0 0 58 58" enable-background="new 0 0 58 58" xml:space="preserve">
<defs>
</defs>
<path id="Combined-Shape_1_" fill="#FFFFFF" d="M10.875,38.668c0.665,0,1.208,0.54,1.208,1.207l0,0v16.918
	c0,0.665-0.543,1.207-1.208,1.207l0,0H1.208C0.542,58,0,57.458,0,56.793l0,0V39.875c0-0.667,0.542-1.207,1.208-1.207l0,0H10.875z
	 M19.786,41.082c3.664,0,7.482,2.781,7.968,3.137c0.486,0.353,2.303,1.813,0.039,1.699l0,0h-4.834c-0.669,0-1.208,0.54-1.208,1.207
	s0.539,1.207,1.208,1.207l0,0h20.403c5.506,1.427,9.806,2.81,9.806,6.043c0,0.667-0.545,1.207-1.209,1.207l0,0h-36.25
	c-0.669,0-1.208-0.54-1.208-1.207l0,0V42.293c0-0.669,0.539-1.211,1.208-1.211l0,0H19.786z M58,21.75v8.457
	c0,0.669-0.542,1.211-1.207,1.211l0,0H30.207c-0.665,0-1.207-0.542-1.207-1.211l0,0V21.75H58z M44.707,24.167h-2.414
	c-0.669,0-1.211,0.541-1.211,1.208s0.542,1.208,1.211,1.208l0,0h2.414c0.669,0,1.211-0.541,1.211-1.208S45.376,24.167,44.707,24.167
	L44.707,24.167z M37.457,24.167h-2.414c-0.669,0-1.211,0.541-1.211,1.208s0.542,1.208,1.211,1.208l0,0h2.414
	c0.669,0,1.211-0.541,1.211-1.208S38.126,24.167,37.457,24.167L37.457,24.167z M58,12.083v7.25H29v-7.25H58z M44.707,14.5h-2.414
	c-0.669,0-1.211,0.542-1.211,1.208c0,0.667,0.542,1.209,1.211,1.209l0,0h2.414c0.669,0,1.211-0.542,1.211-1.209
	C45.918,15.042,45.376,14.5,44.707,14.5L44.707,14.5z M37.457,14.5h-2.414c-0.669,0-1.211,0.542-1.211,1.208
	c0,0.667,0.542,1.209,1.211,1.209l0,0h2.414c0.669,0,1.211-0.542,1.211-1.209C38.668,15.042,38.126,14.5,37.457,14.5L37.457,14.5z
	 M56.793,0C57.458,0,58,0.542,58,1.208l0,0v8.459H29V1.208C29,0.542,29.542,0,30.207,0l0,0H56.793z M37.457,4.833h-2.414
	c-0.669,0-1.211,0.542-1.211,1.209c0,0.667,0.542,1.208,1.211,1.208l0,0h2.414c0.669,0,1.211-0.542,1.211-1.208
	C38.668,5.375,38.126,4.833,37.457,4.833L37.457,4.833z M44.707,4.833h-2.414c-0.669,0-1.211,0.542-1.211,1.209
	c0,0.667,0.542,1.208,1.211,1.208l0,0h2.414c0.669,0,1.211-0.542,1.211-1.208C45.918,5.375,45.376,4.833,44.707,4.833L44.707,4.833z
	"/>
</svg>
