<?xml version="1.0" encoding="utf-8"?>
<!-- Generator: Adobe Illustrator 15.1.0, SVG Export Plug-In  -->
<!DOCTYPE svg PUBLIC "-//W3C//DTD SVG 1.1//EN" "http://www.w3.org/Graphics/SVG/1.1/DTD/svg11.dtd" [
	<!ENTITY ns_flows "http://ns.adobe.com/Flows/1.0/">
]>
<svg version="1.1"
	 xmlns="http://www.w3.org/2000/svg" xmlns:xlink="http://www.w3.org/1999/xlink" xmlns:a="http://ns.adobe.com/AdobeSVGViewerExtensions/3.0/"
	 x="0px" y="0px" width="50px" height="50px" viewBox="0 0 50 50" enable-background="new 0 0 50 50" xml:space="preserve">
<defs>
</defs>
<path id="Combined-Shape_1_" fill="#d0696b" d="M37.5,25.006c0.391,0,0.772,0.217,0.947,0.571l0,0l3.862,7.759h6.648
	c0.439,0,0.831,0.276,0.98,0.685c0.146,0.415,0.024,0.878-0.313,1.157l0,0l-5.705,4.751l2.896,8.688
	c0.149,0.422,0.03,0.902-0.354,1.179c-0.369,0.272-0.849,0.253-1.202,0.006l0,0l-7.749-5.295l-7.757,5.301
	c-0.352,0.247-0.833,0.269-1.203-0.006c-0.381-0.276-0.5-0.757-0.354-1.178l0,0l2.896-8.688l-5.703-4.752
	c-0.338-0.28-0.461-0.741-0.315-1.156c0.153-0.411,0.542-0.687,0.981-0.687l0,0h6.651l3.86-7.757
	C36.743,25.229,37.106,25.006,37.5,25.006z M3.125,39.584c0.575,0,1.042,0.464,1.042,1.041c0,0.573-0.466,1.041-1.042,1.041
	s-1.042-0.468-1.042-1.041C2.083,40.048,2.55,39.584,3.125,39.584z M7.292,39.584c0.575,0,1.042,0.464,1.042,1.041
	c0,0.573-0.467,1.041-1.042,1.041c-0.575,0-1.042-0.468-1.042-1.041C6.25,40.048,6.717,39.584,7.292,39.584z M37.5,22.917
	c-1.181,0.008-2.243,0.663-2.777,1.723l0,0l-3.318,6.61h-5.363c-1.314,0-2.493,0.83-2.935,2.054
	c-0.005,0.009-0.002,0.021-0.006,0.03l0,0h-2.267v6.25H25c0.575,0,1.041,0.466,1.041,1.041S25.575,41.666,25,41.666l0,0H11.458
	c-0.575,0-1.042-0.466-1.042-1.041s0.467-1.041,1.042-1.041l0,0h7.292v-6.25H1.042C0.467,33.334,0,32.867,0,32.291l0,0v-9.375H37.5z
	 M7.292,23.958c-1.723,0-3.125,1.401-3.125,3.125c0,1.722,1.402,3.125,3.125,3.125c1.724,0,3.125-1.403,3.125-3.125
	C10.417,25.36,9.015,23.958,7.292,23.958z M19.792,25c-1.15,0-2.083,0.934-2.083,2.084c0,1.149,0.933,2.082,2.083,2.082
	c1.15,0,2.083-0.933,2.083-2.082C21.875,25.934,20.942,25,19.792,25z M26.041,25c-1.149,0-2.083,0.934-2.083,2.084
	c0,1.149,0.933,2.082,2.083,2.082c1.15,0,2.084-0.933,2.084-2.082C28.125,25.934,27.191,25,26.041,25z M7.292,26.041
	c0.573,0,1.042,0.47,1.042,1.043c0,0.572-0.469,1.041-1.042,1.041c-0.573,0-1.042-0.469-1.042-1.041
	C6.25,26.511,6.718,26.041,7.292,26.041z M39.584,12.5v8.333H0V12.5H39.584z M7.292,13.542c-1.723,0-3.125,1.402-3.125,3.125
	c0,1.723,1.402,3.125,3.125,3.125c1.724,0,3.125-1.402,3.125-3.125C10.417,14.944,9.015,13.542,7.292,13.542z M32.291,14.583
	c-1.149,0-2.082,0.933-2.082,2.083c0,1.15,0.933,2.083,2.082,2.083c1.15,0,2.084-0.933,2.084-2.083
	C34.375,15.517,33.441,14.583,32.291,14.583z M26.041,14.583c-1.149,0-2.083,0.933-2.083,2.083c0,1.15,0.933,2.083,2.083,2.083
	c1.15,0,2.084-0.933,2.084-2.083C28.125,15.517,27.191,14.583,26.041,14.583z M19.792,14.583c-1.15,0-2.083,0.933-2.083,2.083
	c0,1.15,0.933,2.083,2.083,2.083c1.15,0,2.083-0.933,2.083-2.083C21.875,15.517,20.942,14.583,19.792,14.583z M7.292,15.625
	c0.573,0,1.042,0.468,1.042,1.042c0,0.573-0.469,1.042-1.042,1.042c-0.573,0-1.042-0.469-1.042-1.042
	C6.25,16.093,6.718,15.625,7.292,15.625z M38.541,0c0.576,0,1.043,0.467,1.043,1.042l0,0v9.375H0V1.042C0,0.467,0.467,0,1.042,0l0,0
	H38.541z M7.292,3.125c-1.723,0-3.125,1.402-3.125,3.125s1.402,3.125,3.125,3.125c1.724,0,3.125-1.402,3.125-3.125
	S9.015,3.125,7.292,3.125z M19.792,4.167c-1.15,0-2.083,0.934-2.083,2.083s0.933,2.083,2.083,2.083c1.15,0,2.083-0.934,2.083-2.083
	S20.942,4.167,19.792,4.167z M26.041,4.167c-1.149,0-2.083,0.934-2.083,2.083s0.933,2.083,2.083,2.083
	c1.15,0,2.084-0.934,2.084-2.083S27.191,4.167,26.041,4.167z M32.291,4.167c-1.149,0-2.082,0.934-2.082,2.083
	s0.933,2.083,2.082,2.083c1.15,0,2.084-0.934,2.084-2.083S33.441,4.167,32.291,4.167z M7.292,5.208c0.573,0,1.042,0.468,1.042,1.042
	c0,0.573-0.469,1.042-1.042,1.042c-0.573,0-1.042-0.469-1.042-1.042C6.25,5.677,6.718,5.208,7.292,5.208z"/>
</svg>
