<?xml version="1.0" encoding="utf-8"?>
<!-- Generator: Adobe Illustrator 15.1.0, SVG Export Plug-In  -->
<!DOCTYPE svg PUBLIC "-//W3C//DTD SVG 1.1//EN" "http://www.w3.org/Graphics/SVG/1.1/DTD/svg11.dtd" [
	<!ENTITY ns_flows "http://ns.adobe.com/Flows/1.0/">
]>
<svg version="1.1"
	 xmlns="http://www.w3.org/2000/svg" xmlns:xlink="http://www.w3.org/1999/xlink" xmlns:a="http://ns.adobe.com/AdobeSVGViewerExtensions/3.0/"
	 x="0px" y="0px" width="66px" height="63px" viewBox="0 0 66 63" enable-background="new 0 0 66 63" xml:space="preserve">
<defs>
</defs>
<path id="Combined-Shape_1_" fill="#FFFFFF" d="M20.625,38.5c5.874,0,9.602,3.325,11.106,4.802l0.298,0.298
	c0.258,0.258,0.607,0.399,0.971,0.399l0,0h8.251c2.985,0,3.778,2.594,3.778,4.125c0,2.262-1.329,4.125-3.778,4.125l0,0H27.499
	c-0.758,0-1.375,0.616-1.375,1.378c0,0.757,0.616,1.373,1.375,1.373l0,0h13.752c4.645,0,7.098-4.148,6.417-8.184l0,0l8.272-2.745
	c3.644-1.043,6.43-0.146,9.658,3.082c0.655,0.658,0.487,1.776-0.358,2.203c-18.607,9.302-22.567,13.552-27.917,13.552
	c-2.646,0-5.614-1.043-10.916-2.971c-2.695-0.981-7.426-2.202-11.718-3.634c-0.561-0.184-0.941-0.711-0.941-1.304l0,0V39.874
	c0-0.758,0.616-1.374,1.375-1.374l0,0H20.625z M9.625,35.753c0.756,0,1.375,0.614,1.375,1.373l0,0v22
	c0,0.757-0.619,1.377-1.375,1.377l0,0h-8.25C0.616,60.503,0,59.883,0,59.126l0,0v-22c0-0.759,0.616-1.373,1.375-1.373l0,0H9.625z
	 M34.375,19.251c5.31,0,9.628,4.314,9.628,9.625c0,5.308-4.318,9.624-9.628,9.624c-5.306,0-9.624-4.316-9.624-9.624
	C24.751,23.565,29.068,19.251,34.375,19.251z M34.375,24.751c-0.757,0-1.374,0.616-1.374,1.375l0,0v5.501
	c0,0.756,0.617,1.375,1.374,1.375c0.758,0,1.378-0.618,1.378-1.375l0,0v-5.501C35.752,25.367,35.132,24.751,34.375,24.751z M46.75,0
	c5.31,0,9.628,4.314,9.628,9.625c0,5.309-4.318,9.626-9.628,9.626c-5.306,0-9.624-4.317-9.624-9.626C37.126,4.314,41.445,0,46.75,0z
	 M46.75,5.5c-0.758,0-1.374,0.616-1.374,1.375l0,0v5.5c0,0.756,0.616,1.375,1.374,1.375c0.757,0,1.377-0.618,1.377-1.375l0,0v-5.5
	C48.127,6.116,47.507,5.5,46.75,5.5z"/>
</svg>
