<?xml version="1.0" encoding="utf-8"?>
<!-- Generator: Adobe Illustrator 15.1.0, SVG Export Plug-In  -->
<!DOCTYPE svg PUBLIC "-//W3C//DTD SVG 1.1//EN" "http://www.w3.org/Graphics/SVG/1.1/DTD/svg11.dtd" [
	<!ENTITY ns_flows "http://ns.adobe.com/Flows/1.0/">
]>
<svg version="1.1"
	 xmlns="http://www.w3.org/2000/svg" xmlns:xlink="http://www.w3.org/1999/xlink" xmlns:a="http://ns.adobe.com/AdobeSVGViewerExtensions/3.0/"
	 x="0px" y="0px" width="58px" height="58px" viewBox="0 0 58 58" enable-background="new 0 0 58 58" xml:space="preserve">
<defs>
</defs>
<path id="Fill-1759_1_" fill="#006fba" d="M53.165,34.589c2.665,0,4.835-2.166,4.835-4.832c0-2.667-2.17-4.834-4.835-4.834
	c-3.082,0-5.539,2.929-4.631,6.138l-8.539,4.979c-2.645-2.685-7.16-1.454-8.104,2.174h-8.575c-0.542-2.076-2.417-3.624-4.662-3.624
	c-3.091,0-5.584,2.955-4.606,6.219L2.417,48.452V29.154l14.756-8.951c2.189,2.136,5.769,1.75,7.441-0.873l9.531,3.077
	c0,2.956,2.302,4.932,4.822,4.932c3.979,0,6.288-4.572,3.81-7.771l8.218-10.44C54.293,10.808,58,8.345,58,4.833
	C58,2.167,55.83,0,53.165,0c-2.662,0-4.832,2.167-4.832,4.833c0,1.005,0.309,1.938,0.836,2.714L40.88,18.072
	c-0.586-0.254-1.23-0.399-1.912-0.399c-1.778,0-3.317,0.977-4.157,2.413l-9.465-3.055c0.149-2.992-2.194-5.117-4.804-5.117
	c-3.125,0-5.581,2.994-4.609,6.214L2.417,26.324V1.964c0-0.667-0.542-1.208-1.208-1.208C0.542,0.756,0,1.297,0,1.964V56.34
	c0,0.667,0.542,1.208,1.209,1.208h54.374c0.667,0,1.207-0.541,1.207-1.208s-0.54-1.209-1.207-1.209H2.417v-3.787l12.874-8.461
	c2.656,2.587,7.091,1.34,8.026-2.252h8.575c0.542,2.078,2.416,3.624,4.66,3.624c3.099,0,5.531-2.939,4.64-6.115l8.546-4.984
	C50.612,34.039,51.823,34.589,53.165,34.589"/>
</svg>
