<?xml version="1.0" encoding="utf-8"?>
<!-- Generator: Adobe Illustrator 15.1.0, SVG Export Plug-In  -->
<!DOCTYPE svg PUBLIC "-//W3C//DTD SVG 1.1//EN" "http://www.w3.org/Graphics/SVG/1.1/DTD/svg11.dtd" [
	<!ENTITY ns_flows "http://ns.adobe.com/Flows/1.0/">
]>
<svg version="1.1"
	 xmlns="http://www.w3.org/2000/svg" xmlns:xlink="http://www.w3.org/1999/xlink" xmlns:a="http://ns.adobe.com/AdobeSVGViewerExtensions/3.0/"
	 x="0px" y="0px" width="58px" height="70px" viewBox="0 0 58 70" enable-background="new 0 0 58 70" xml:space="preserve">
<defs>
</defs>
<path id="Fill-4485_1_" fill="#006fba" d="M58,8.701V1.45C58,0.65,57.353,0,56.553,0H1.45C0.65,0,0,0.65,0,1.45v7.251H58z"/>
<path id="Fill-4486_1_" fill="#006fba" d="M29.001,20.302c-4,0-7.251,3.253-7.251,7.25v1.45h14.5v-1.45
	C36.25,23.555,33.001,20.302,29.001,20.302"/>
<path id="Fill-4487_1_" fill="#006fba" d="M29.001,34.801c-1.601,0-2.9,1.303-2.9,2.9c0,1.06,0.601,1.95,1.45,2.458v4.794
	c0,0.8,0.65,1.449,1.45,1.449c0.8,0,1.451-0.649,1.451-1.449v-4.794c0.85-0.508,1.449-1.398,1.449-2.458
	C31.902,36.104,30.602,34.801,29.001,34.801"/>
<path id="Fill-4488_1_" fill="#006fba" d="M43.5,50.752c0,0.802-0.647,1.449-1.449,1.449H15.951c-0.8,0-1.45-0.647-1.45-1.449v-20.3
	c0-0.8,0.65-1.45,1.45-1.45h2.9v-1.45c0-5.597,4.553-10.15,10.15-10.15c5.599,0,10.149,4.553,10.149,10.15v1.45h2.9
	c0.802,0,1.449,0.65,1.449,1.45V50.752z M0,11.601v10.922c0,19.746,10.852,37.719,28.329,46.911c0.42,0.228,0.924,0.228,1.346,0
	C47.15,60.242,58,42.269,58,22.523V11.601H0z"/>
</svg>
