<?xml version="1.0" encoding="utf-8"?>
<!-- Generator: Adobe Illustrator 15.1.0, SVG Export Plug-In  -->
<!DOCTYPE svg PUBLIC "-//W3C//DTD SVG 1.1//EN" "http://www.w3.org/Graphics/SVG/1.1/DTD/svg11.dtd" [
	<!ENTITY ns_flows "http://ns.adobe.com/Flows/1.0/">
]>
<svg version="1.1"
	 xmlns="http://www.w3.org/2000/svg" xmlns:xlink="http://www.w3.org/1999/xlink" xmlns:a="http://ns.adobe.com/AdobeSVGViewerExtensions/3.0/"
	 x="0px" y="0px" width="59px" height="58px" viewBox="0 0 59 58" enable-background="new 0 0 59 58" xml:space="preserve">
<defs>
</defs>
<path id="Fill-494_1_" fill="#0B70B8" d="M57.769,55.314h-1.228V19.668c0-0.678-0.553-1.229-1.229-1.229h-7.375
	c-0.677,0-1.228,0.551-1.228,1.229v35.646h-4.918V29.502c0-0.679-0.553-1.229-1.228-1.229h-7.377c-0.677,0-1.228,0.551-1.228,1.229
	v25.812h-4.917V39.336c0-0.681-0.553-1.232-1.229-1.232h-7.375c-0.679,0-1.229,0.552-1.229,1.232v15.978h-4.917v-6.146
	c0-0.679-0.553-1.229-1.229-1.229H3.688c-0.679,0-1.229,0.551-1.229,1.229v6.146H1.23c-0.679,0-1.23,0.551-1.23,1.229
	c0,0.675,0.551,1.229,1.23,1.229h56.539c0.677,0,1.231-0.555,1.231-1.229C59,55.865,58.445,55.314,57.769,55.314"/>
<path id="Fill-495_1_" fill="#0B70B8" d="M8.057,32.911L50.073,4.898l-0.897,7.243c-0.085,0.673,0.394,1.288,1.068,1.371
	c0.644,0.091,1.286-0.375,1.371-1.066l1.229-9.905c0.075-0.605-0.375-1.273-1.031-1.354c-0.069-0.027-9.804-1.168-9.879-1.178
	c-0.687-0.079-1.286,0.403-1.363,1.08c-0.081,0.676,0.401,1.285,1.076,1.361l6.516,0.77L6.693,30.865
	c-0.566,0.379-0.718,1.141-0.339,1.706C6.727,33.138,7.496,33.288,8.057,32.911"/>
</svg>
