<?xml version="1.0" encoding="utf-8"?>
<!-- Generator: Adobe Illustrator 15.1.0, SVG Export Plug-In  -->
<!DOCTYPE svg PUBLIC "-//W3C//DTD SVG 1.1//EN" "http://www.w3.org/Graphics/SVG/1.1/DTD/svg11.dtd" [
	<!ENTITY ns_flows "http://ns.adobe.com/Flows/1.0/">
]>
<svg version="1.1"
	 xmlns="http://www.w3.org/2000/svg" xmlns:xlink="http://www.w3.org/1999/xlink" xmlns:a="http://ns.adobe.com/AdobeSVGViewerExtensions/3.0/"
	 x="0px" y="0px" width="47px" height="56px" viewBox="0 0 47 56" enable-background="new 0 0 47 56" xml:space="preserve">
<defs>
</defs>
<path id="Fill-4485_1_" fill="#d0696b" d="M47,7.051V1.175C47,0.527,46.475,0,45.828,0H1.175C0.527,0,0,0.527,0,1.175v5.875H47z"/>
<path id="Fill-4486_1_" fill="#d0696b" d="M23.501,16.451c-3.241,0-5.875,2.636-5.875,5.875v1.175h11.75v-1.175
	C29.375,19.087,26.743,16.451,23.501,16.451"/>
<path id="Fill-4487_1_" fill="#d0696b" d="M23.501,28.201c-1.297,0-2.35,1.055-2.35,2.35c0,0.858,0.486,1.58,1.175,1.992v3.885
	c0,0.647,0.527,1.174,1.175,1.174c0.649,0,1.176-0.526,1.176-1.174v-3.885c0.688-0.412,1.174-1.134,1.174-1.992
	C25.851,29.256,24.798,28.201,23.501,28.201"/>
<path id="Fill-4488_1_" fill="#d0696b" d="M35.25,41.126c0,0.649-0.524,1.175-1.174,1.175H12.926c-0.648,0-1.175-0.525-1.175-1.175
	v-16.45c0-0.648,0.527-1.175,1.175-1.175h2.35v-1.175c0-4.536,3.689-8.225,8.225-8.225c4.537,0,8.225,3.689,8.225,8.225v1.175h2.351
	c0.649,0,1.174,0.527,1.174,1.175V41.126z M0,9.4v8.851c0,16,8.793,30.565,22.956,38.013c0.34,0.185,0.749,0.185,1.09,0
	C38.208,48.816,47,34.252,47,18.251V9.4H0z"/>
</svg>
