<?xml version="1.0" encoding="utf-8"?>
<!-- Generator: Adobe Illustrator 15.1.0, SVG Export Plug-In  -->
<!DOCTYPE svg PUBLIC "-//W3C//DTD SVG 1.1//EN" "http://www.w3.org/Graphics/SVG/1.1/DTD/svg11.dtd" [
	<!ENTITY ns_flows "http://ns.adobe.com/Flows/1.0/">
]>
<svg version="1.1"
	 xmlns="http://www.w3.org/2000/svg" xmlns:xlink="http://www.w3.org/1999/xlink" xmlns:a="http://ns.adobe.com/AdobeSVGViewerExtensions/3.0/"
	 x="0px" y="0px" width="58px" height="58px" viewBox="0 0 58 58" enable-background="new 0 0 58 58" xml:space="preserve">
<defs>
</defs>
<path id="Fill-3290_1_" fill="#FFFFFF" d="M32.105,40.275c1.501-0.521,4.231-1.72,4.146-3.313c3.204,1.851,3.774,4.968,4.992,8.596
	L32.105,40.275z M24.166,56.801c0.839-3.63,3.146-8.459,4.834-8.459c1.687,0,3.993,4.829,4.833,8.459H24.166z M21.748,36.963
	c-0.087,1.593,2.644,2.792,4.146,3.313l-9.143,5.283C17.97,41.937,18.541,38.813,21.748,36.963L21.748,36.963z M31.416,42.302v1.207
	c0,1.332-1.084,2.417-2.416,2.417c-1.335,0-2.417-1.085-2.417-2.417v-1.207L29,41.093L31.416,42.302z M55.233,45.119
	c-1.747-2.62-6.524-4.48-14.825-7.613c-1.781-2.267-4.156-3.302-4.156-3.302v-3.532c1.063-0.903,3.324-3.267,3.595-7.101
	c1.951-1.846,1.809-5.879,0.226-7.25c1.259-3.348,2.873-7.243,2.192-10.655C41.427,1.483,35.488,0,30.655,0
	c-3.748,0-8.301,0.944-9.736,3.53c-1.446,0.16-2.558,0.757-3.319,1.782c-2.1,2.831-0.665,7.179,0.365,10.963
	c-1.581,1.373-1.769,5.45,0.184,7.296c0.266,3.837,2.535,6.188,3.599,7.09h0.002v3.543c0,0-2.378,1.035-4.159,3.302
	C9.29,40.639,4.514,42.499,2.767,45.119C0.186,48.989,0.007,56.511,0,56.828c0,0.665,0.538,1.18,1.208,1.18h55.585
	c0.666,0,1.207-0.539,1.207-1.207C57.992,56.485,57.817,48.989,55.233,45.119L55.233,45.119z"/>
</svg>
