<?xml version="1.0" encoding="utf-8"?>
<!-- Generator: Adobe Illustrator 15.1.0, SVG Export Plug-In  -->
<!DOCTYPE svg PUBLIC "-//W3C//DTD SVG 1.1//EN" "http://www.w3.org/Graphics/SVG/1.1/DTD/svg11.dtd" [
	<!ENTITY ns_flows "http://ns.adobe.com/Flows/1.0/">
]>
<svg version="1.1"
	 xmlns="http://www.w3.org/2000/svg" xmlns:xlink="http://www.w3.org/1999/xlink" xmlns:a="http://ns.adobe.com/AdobeSVGViewerExtensions/3.0/"
	 x="0px" y="0px" width="220px" height="99px" viewBox="0 0 220 99" enable-background="new 0 0 220 99" xml:space="preserve">
<defs>
</defs>
<path fill="#0F70B8" d="M219.074,21.164L198.836,0.926c-1.234-1.235-3.237-1.235-4.472,0c-1.235,1.235-1.235,3.237,0,4.472
	l14.84,14.839H117.21c-1.746,0-3.162,1.416-3.162,3.162s1.416,3.162,3.162,3.162h91.994l-14.84,14.84
	c-1.234,1.235-1.234,3.237,0,4.472c0.618,0.617,1.427,0.926,2.236,0.926s1.618-0.309,2.236-0.926l20.237-20.237
	C220.309,24.401,220.309,22.399,219.074,21.164z"/>
<path fill="#010101" d="M219.074,73.276l-20.238-20.238c-1.234-1.234-3.237-1.234-4.472,0c-1.235,1.235-1.235,3.237,0,4.473
	l14.84,14.839H117.21c-1.746,0-3.162,1.416-3.162,3.162s1.416,3.162,3.162,3.162h91.994l-14.84,14.84
	c-1.234,1.235-1.234,3.237,0,4.472c0.618,0.617,1.427,0.927,2.236,0.927s1.618-0.31,2.236-0.927l20.237-20.237
	C220.309,76.513,220.309,74.511,219.074,73.276z"/>
<path fill="#0F70B8" d="M0.926,21.164L21.164,0.926c1.234-1.235,3.237-1.235,4.472,0c1.235,1.235,1.235,3.237,0,4.472L10.796,20.238
	h91.994c1.746,0,3.162,1.416,3.162,3.162s-1.416,3.162-3.162,3.162H10.796l14.839,14.84c1.235,1.235,1.235,3.237,0,4.472
	c-0.617,0.617-1.427,0.926-2.236,0.926c-0.81,0-1.619-0.309-2.236-0.926L0.926,25.636C-0.309,24.401-0.309,22.399,0.926,21.164z"/>
<path fill="#010101" d="M0.926,73.276l20.238-20.238c1.234-1.234,3.237-1.234,4.472,0c1.235,1.235,1.235,3.237,0,4.473L10.796,72.35
	h91.994c1.746,0,3.162,1.416,3.162,3.162s-1.416,3.162-3.162,3.162H10.796l14.839,14.84c1.235,1.235,1.235,3.237,0,4.472
	c-0.617,0.617-1.427,0.927-2.236,0.927c-0.81,0-1.619-0.31-2.236-0.927L0.926,77.748C-0.309,76.513-0.309,74.511,0.926,73.276z"/>
</svg>
